<?xml version="1.0" encoding="UTF-8"?>
<svg xmlns="http://www.w3.org/2000/svg" xmlns:xlink="http://www.w3.org/1999/xlink" viewBox="0 0 64 64" version="1.1" width="64px" height="64px">
<g id="surface1">
<path style=" " d="M 7 6 C 5.347656 6 4 7.347656 4 9 L 4 55 C 4 56.652344 5.347656 58 7 58 L 57 58 C 58.652344 58 60 56.652344 60 55 L 60 9 C 60 7.347656 58.652344 6 57 6 Z M 7 8 L 57 8 C 57.550781 8 58 8.449219 58 9 L 58 55 C 58 55.550781 57.550781 56 57 56 L 7 56 C 6.449219 56 6 55.550781 6 55 L 6 9 C 6 8.449219 6.449219 8 7 8 Z M 15 22 C 14.449219 22 14 22.445313 14 23 C 14 23.554688 14.449219 24 15 24 L 49 24 C 49.550781 24 50 23.554688 50 23 C 50 22.445313 49.550781 22 49 22 Z M 15 30 C 14.449219 30 14 30.445313 14 31 C 14 31.554688 14.449219 32 15 32 L 49 32 C 49.550781 32 50 31.554688 50 31 C 50 30.445313 49.550781 30 49 30 Z M 15 38 C 14.449219 38 14 38.445313 14 39 C 14 39.554688 14.449219 40 15 40 L 49 40 C 49.550781 40 50 39.554688 50 39 C 50 38.445313 49.550781 38 49 38 Z M 9 50 C 8.449219 50 8 50.445313 8 51 L 8 53 C 8 53.554688 8.449219 54 9 54 C 9.550781 54 10 53.554688 10 53 L 10 51 C 10 50.445313 9.550781 50 9 50 Z M 14 50 C 13.449219 50 13 50.445313 13 51 L 13 53 C 13 53.554688 13.449219 54 14 54 C 14.550781 54 15 53.554688 15 53 L 15 51 C 15 50.445313 14.550781 50 14 50 Z M 19 50 C 18.449219 50 18 50.445313 18 51 L 18 53 C 18 53.554688 18.449219 54 19 54 C 19.550781 54 20 53.554688 20 53 L 20 51 C 20 50.445313 19.550781 50 19 50 Z M 24 50 C 23.449219 50 23 50.445313 23 51 L 23 53 C 23 53.554688 23.449219 54 24 54 C 24.550781 54 25 53.554688 25 53 L 25 51 C 25 50.445313 24.550781 50 24 50 Z M 29 50 C 28.449219 50 28 50.445313 28 51 L 28 53 C 28 53.554688 28.449219 54 29 54 C 29.550781 54 30 53.554688 30 53 L 30 51 C 30 50.445313 29.550781 50 29 50 Z M 34 50 C 33.449219 50 33 50.445313 33 51 L 33 53 C 33 53.554688 33.449219 54 34 54 C 34.550781 54 35 53.554688 35 53 L 35 51 C 35 50.445313 34.550781 50 34 50 Z M 39 50 C 38.449219 50 38 50.445313 38 51 L 38 53 C 38 53.554688 38.449219 54 39 54 C 39.550781 54 40 53.554688 40 53 L 40 51 C 40 50.445313 39.550781 50 39 50 Z M 44 50 C 43.449219 50 43 50.445313 43 51 L 43 53 C 43 53.554688 43.449219 54 44 54 C 44.550781 54 45 53.554688 45 53 L 45 51 C 45 50.445313 44.550781 50 44 50 Z M 49 50 C 48.449219 50 48 50.445313 48 51 L 48 53 C 48 53.554688 48.449219 54 49 54 C 49.550781 54 50 53.554688 50 53 L 50 51 C 50 50.445313 49.550781 50 49 50 Z M 54 50 C 53.449219 50 53 50.445313 53 51 L 53 53 C 53 53.554688 53.449219 54 54 54 C 54.550781 54 55 53.554688 55 53 L 55 51 C 55 50.445313 54.550781 50 54 50 Z "/>
</g>
</svg>
