<?xml version="1.0" encoding="iso-8859-1"?>
<!-- Generator: Adobe Illustrator 19.0.0, SVG Export Plug-In . SVG Version: 6.00 Build 0)  -->
<svg version="1.1" id="Capa_1" xmlns="http://www.w3.org/2000/svg" xmlns:xlink="http://www.w3.org/1999/xlink" x="0px" y="0px"
	 viewBox="0 0 512 512" style="enable-background:new 0 0 512 512;" xml:space="preserve">
<g>
	<g>
		<path d="M256,0C114.842,0,0,114.842,0,256s114.842,256,256,256s256-114.842,256-256S397.158,0,256,0z M256,494.933
			C124.254,494.933,17.067,387.746,17.067,256S124.254,17.067,256,17.067S494.933,124.254,494.933,256S387.746,494.933,256,494.933z
			"/>
	</g>
</g>
<g>
	<g>
		<path d="M298.667,76.8c-42.351,0-76.8,34.449-76.8,76.8v42.667h-34.133c-4.71,0-8.533,3.814-8.533,8.533v34.133
			c0,4.719,3.823,8.533,8.533,8.533h34.133v102.4c0,14.114-11.486,25.6-25.6,25.6s-25.6-11.486-25.6-25.6
			c0-4.719-3.823-8.533-8.533-8.533H128c-4.71,0-8.533,3.814-8.533,8.533c0,42.351,34.449,76.8,76.8,76.8
			c42.351,0,76.8-34.449,76.8-76.8v-102.4H307.2c4.71,0,8.533-3.814,8.533-8.533V204.8c0-4.719-3.823-8.533-8.533-8.533h-34.133
			V153.6c0-14.114,11.486-25.6,25.6-25.6s25.6,11.486,25.6,25.6c0,4.719,3.823,8.533,8.533,8.533h34.133
			c4.71,0,8.533-3.814,8.533-8.533C375.467,111.249,341.018,76.8,298.667,76.8z M340.48,145.067
			c-3.968-19.447-21.205-34.133-41.813-34.133c-23.526,0-42.667,19.14-42.667,42.667v51.2c0,4.719,3.823,8.533,8.533,8.533h34.133
			V230.4h-34.133c-4.71,0-8.533,3.814-8.533,8.533v110.933c0,32.93-26.795,59.733-59.733,59.733
			c-30.046,0-54.972-22.289-59.127-51.2h17.314c3.968,19.447,21.205,34.133,41.813,34.133c23.526,0,42.667-19.14,42.667-42.667
			V238.933c0-4.719-3.823-8.533-8.533-8.533h-34.133v-17.067H230.4c4.71,0,8.533-3.814,8.533-8.533v-51.2
			c0-32.93,26.795-59.733,59.733-59.733c30.046,0,54.972,22.289,59.128,51.2H340.48z"/>
	</g>
</g>
<g>
	<g>
		<path d="M398.566,386.5L330.3,318.234c-3.328-3.336-8.738-3.336-12.066,0c-3.336,3.337-3.336,8.73,0,12.066l68.267,68.267
			c1.664,1.664,3.849,2.5,6.033,2.5c2.185,0,4.369-0.836,6.033-2.5C401.903,395.23,401.903,389.837,398.566,386.5z"/>
	</g>
</g>
<g>
	<g>
		<path d="M398.566,318.234c-3.328-3.336-8.738-3.336-12.066,0L318.234,386.5c-3.336,3.337-3.336,8.73,0,12.066
			c1.664,1.664,3.849,2.5,6.033,2.5c2.185,0,4.369-0.836,6.033-2.5l68.267-68.267C401.903,326.963,401.903,321.57,398.566,318.234z"
			/>
	</g>
</g>
<g>
</g>
<g>
</g>
<g>
</g>
<g>
</g>
<g>
</g>
<g>
</g>
<g>
</g>
<g>
</g>
<g>
</g>
<g>
</g>
<g>
</g>
<g>
</g>
<g>
</g>
<g>
</g>
<g>
</g>
</svg>
